<svg width="144" height="176" viewBox="0 0 144 176" fill="none" xmlns="http://www.w3.org/2000/svg">
<rect x="109.814" width="3.41608" height="3.14035" fill="#73007D"/>
<rect x="85.9019" y="3.14034" width="3.41608" height="3.14035" fill="#73007D"/>
<rect x="89.3181" y="3.14034" width="3.41608" height="3.14035" fill="#73007D"/>
<rect x="92.7341" y="3.14034" width="3.41608" height="3.14035" fill="#421146"/>
<rect x="96.15" y="3.14034" width="3.41608" height="3.14035" fill="#73007D"/>
<rect x="99.5662" y="3.14034" width="3.41608" height="3.14035" fill="#73007D"/>
<rect x="102.982" y="3.14034" width="3.41608" height="3.14035" fill="#73007D"/>
<rect x="106.398" y="3.14034" width="3.41608" height="3.14035" fill="#73007D"/>
<rect x="109.814" y="3.14034" width="3.41608" height="3.14035" fill="#600068"/>
<rect x="113.231" y="3.14034" width="3.41608" height="3.14035" fill="#73007D"/>
<rect x="82.4858" y="6.28065" width="3.41608" height="3.14035" fill="#73007D"/>
<rect x="85.9019" y="6.28065" width="3.41608" height="3.14035" fill="#73007D"/>
<rect x="89.3181" y="6.28065" width="3.41608" height="3.14035" fill="#421146"/>
<rect x="92.7341" y="6.28065" width="3.41608" height="3.14035" fill="#600068"/>
<rect x="96.15" y="6.28065" width="3.41608" height="3.14035" fill="#73007D"/>
<rect x="99.5662" y="6.28065" width="3.41608" height="3.14035" fill="#AA00B9"/>
<rect x="102.982" y="6.28065" width="3.41608" height="3.14035" fill="#73007D"/>
<rect x="106.398" y="6.28065" width="3.41608" height="3.14035" fill="#AA00B9"/>
<rect x="109.814" y="6.28065" width="3.41608" height="3.14035" fill="#73007D"/>
<rect x="113.231" y="6.28065" width="3.41608" height="3.14035" fill="#600068"/>
<rect x="116.647" y="6.28065" width="3.41608" height="3.14035" fill="#73007D"/>
<rect x="82.4858" y="9.42097" width="3.41608" height="3.14035" fill="#73007D"/>
<rect x="85.9019" y="9.42097" width="3.41608" height="3.14035" fill="#73007D"/>
<rect x="92.7341" y="9.42097" width="3.41608" height="3.14035" fill="#73007D"/>
<rect x="96.15" y="9.42097" width="3.41608" height="3.14035" fill="#AA00B9"/>
<rect x="99.5662" y="9.42097" width="3.41608" height="3.14035" fill="#73007D"/>
<rect x="102.982" y="9.42097" width="3.41608" height="3.14035" fill="#AA00B9"/>
<rect x="106.398" y="9.42097" width="3.41608" height="3.14035" fill="#E5257D"/>
<rect x="109.814" y="9.42097" width="3.41608" height="3.14035" fill="#AA00B9"/>
<rect x="113.231" y="9.42097" width="3.41608" height="3.14035" fill="#600068"/>
<rect x="116.647" y="9.42097" width="3.41608" height="3.14035" fill="#73007D"/>
<rect x="82.4858" y="12.5613" width="3.41608" height="3.14035" fill="#73007D"/>
<rect x="85.9019" y="12.5613" width="3.41608" height="3.14035" fill="#73007D"/>
<rect x="92.7341" y="12.5613" width="3.41608" height="3.14035" fill="#600068"/>
<rect x="96.15" y="12.5613" width="3.41608" height="3.14035" fill="#EC9E77"/>
<rect x="99.5662" y="12.5613" width="3.41608" height="3.14035" fill="#73007D"/>
<rect x="102.982" y="12.5613" width="3.41608" height="3.14035" fill="#E5257D"/>
<rect x="106.398" y="12.5613" width="3.41608" height="3.14035" fill="#73007D"/>
<rect x="109.814" y="12.5613" width="3.41608" height="3.14035" fill="#421146"/>
<rect x="113.231" y="12.5613" width="3.41608" height="3.14035" fill="#73007D"/>
<rect x="116.647" y="12.5613" width="3.41608" height="3.14035" fill="#73007D"/>
<rect x="17.5806" y="15.7018" width="3.41608" height="3.14035" fill="white"/>
<rect x="20.9966" y="15.7018" width="3.41608" height="3.14035" fill="#3F3F3F"/>
<rect x="24.4126" y="15.7018" width="3.41608" height="3.14035" fill="#3F3F3F"/>
<rect x="27.8286" y="15.7018" width="3.41608" height="3.14035" fill="#3F3F3F"/>
<rect x="82.4858" y="15.7018" width="3.41608" height="3.14035" fill="#73007D"/>
<rect x="85.9019" y="15.7018" width="3.41608" height="3.14035" fill="#73007D"/>
<rect x="92.7341" y="15.7018" width="3.41608" height="3.14035" fill="#EC9E77"/>
<rect x="96.15" y="15.7018" width="3.41608" height="3.14035" fill="black"/>
<rect x="99.5662" y="15.7018" width="3.41608" height="3.14035" fill="#EC9E77"/>
<rect x="102.982" y="15.7018" width="3.41608" height="3.14035" fill="black"/>
<rect x="106.398" y="15.7018" width="3.41608" height="3.14035" fill="#EC9E77"/>
<rect x="109.814" y="15.7018" width="3.41608" height="3.14035" fill="#421146"/>
<rect x="113.231" y="15.7018" width="3.41608" height="3.14035" fill="#73007D"/>
<rect x="17.5806" y="18.8421" width="3.41608" height="3.14035" fill="white"/>
<rect x="20.9966" y="18.8421" width="3.41608" height="3.14035" fill="white"/>
<rect x="24.4126" y="18.8421" width="3.41608" height="3.14035" fill="white"/>
<rect x="27.8286" y="18.8421" width="3.41608" height="3.14035" fill="white"/>
<rect x="31.2446" y="18.8421" width="3.41608" height="3.14035" fill="black"/>
<rect x="34.6606" y="18.8421" width="3.41608" height="3.14035" fill="#3F3F3F"/>
<rect x="38.0769" y="18.8421" width="3.41608" height="3.14035" fill="#3F3F3F"/>
<rect x="41.4929" y="18.8421" width="3.41608" height="3.14035" fill="#3F3F3F"/>
<rect x="82.4858" y="18.8421" width="3.41608" height="3.14035" fill="#73007D"/>
<rect x="85.9019" y="18.8421" width="3.41608" height="3.14035" fill="#AA00B9"/>
<rect x="96.15" y="18.8421" width="3.41608" height="3.14035" fill="#EC7777"/>
<rect x="99.5662" y="18.8421" width="3.41608" height="3.14035" fill="#EC9E77"/>
<rect x="102.982" y="18.8421" width="3.41608" height="3.14035" fill="#EC9E77"/>
<rect x="106.398" y="18.8421" width="3.41608" height="3.14035" fill="#EC7777"/>
<rect x="109.814" y="18.8421" width="3.41608" height="3.14035" fill="#73007D"/>
<rect x="113.231" y="18.8421" width="3.41608" height="3.14035" fill="#73007D"/>
<rect x="20.9966" y="21.9824" width="3.41608" height="3.14035" fill="white"/>
<rect x="24.4126" y="21.9824" width="3.41608" height="3.14035" fill="white"/>
<rect x="27.8286" y="21.9824" width="3.41608" height="3.14035" fill="black"/>
<rect x="31.2446" y="21.9824" width="3.41608" height="3.14035" fill="black"/>
<rect x="34.6606" y="21.9824" width="3.41608" height="3.14035" fill="black"/>
<rect x="38.0769" y="21.9824" width="3.41608" height="3.14035" fill="black"/>
<rect x="41.4929" y="21.9824" width="3.41608" height="3.14035" fill="white"/>
<rect x="44.9089" y="21.9824" width="3.41608" height="3.14035" fill="white"/>
<rect x="48.3252" y="21.9824" width="3.41608" height="3.14035" fill="#3F3F3F"/>
<rect x="51.741" y="21.9824" width="3.41608" height="3.14035" fill="#3F3F3F"/>
<rect x="55.1575" y="21.9824" width="3.41608" height="3.14035" fill="#3F3F3F"/>
<rect x="82.4858" y="21.9824" width="3.41608" height="3.14035" fill="#AA00B9"/>
<rect x="85.9019" y="21.9824" width="3.41608" height="3.14035" fill="#73007D"/>
<rect x="96.15" y="21.9824" width="3.41608" height="3.14035" fill="#EC9E77"/>
<rect x="99.5662" y="21.9824" width="3.41608" height="3.14035" fill="#EC9E77"/>
<rect x="102.982" y="21.9824" width="3.41608" height="3.14035" fill="#EC9E77"/>
<rect x="106.398" y="21.9824" width="3.41608" height="3.14035" fill="#EC9E77"/>
<rect x="109.814" y="21.9824" width="3.41608" height="3.14035" fill="#AA00B9"/>
<rect x="113.231" y="21.9824" width="3.41608" height="3.14035" fill="#73007D"/>
<rect x="20.9966" y="25.1228" width="3.41608" height="3.14035" fill="black"/>
<rect x="24.4126" y="25.1228" width="3.41608" height="3.14035" fill="black"/>
<rect x="27.8286" y="25.1228" width="3.41608" height="3.14035" fill="black"/>
<rect x="31.2446" y="25.1228" width="3.41608" height="3.14035" fill="black"/>
<rect x="34.6606" y="25.1228" width="3.41608" height="3.14035" fill="black"/>
<rect x="38.0769" y="25.1228" width="3.41608" height="3.14035" fill="black"/>
<rect x="41.4929" y="25.1228" width="3.41608" height="3.14035" fill="white"/>
<rect x="44.9089" y="25.1228" width="3.41608" height="3.14035" fill="white"/>
<rect x="48.3252" y="25.1228" width="3.41608" height="3.14035" fill="black"/>
<rect x="51.741" y="25.1228" width="3.41608" height="3.14035" fill="black"/>
<rect x="55.1575" y="25.1228" width="3.41608" height="3.14035" fill="white"/>
<rect x="58.5732" y="25.1228" width="3.41608" height="3.14035" fill="black"/>
<rect x="61.9894" y="25.1228" width="3.41608" height="3.14035" fill="#404040"/>
<rect x="65.4055" y="25.1228" width="3.41608" height="3.14035" fill="#3F3F3F"/>
<rect x="68.8214" y="25.1228" width="3.41608" height="3.14035" fill="#3F3F3F"/>
<rect x="72.2375" y="25.1228" width="3.41608" height="3.14035" fill="#3F3F3F"/>
<rect x="82.4858" y="25.1228" width="3.41608" height="3.14035" fill="#73007D"/>
<rect x="85.9019" y="25.1228" width="3.41608" height="3.14035" fill="#73007D"/>
<rect x="89.3181" y="25.1228" width="3.41608" height="3.14035" fill="#70007A"/>
<rect x="96.15" y="25.1228" width="3.41608" height="3.14035" fill="#D48761"/>
<rect x="99.5662" y="25.1228" width="3.41608" height="3.14035" fill="#EC9E77"/>
<rect x="102.982" y="25.1228" width="3.41608" height="3.14035" fill="#EC9E77"/>
<rect x="109.814" y="25.1228" width="3.41608" height="3.14035" fill="#73007D"/>
<rect x="113.231" y="25.1228" width="3.41608" height="3.14035" fill="#AA00B9"/>
<rect x="20.9966" y="28.2631" width="3.41608" height="3.14035" fill="black"/>
<rect x="24.4126" y="28.2631" width="3.41608" height="3.14035" fill="black"/>
<rect x="27.8286" y="28.2631" width="3.41608" height="3.14035" fill="white"/>
<rect x="31.2446" y="28.2631" width="3.41608" height="3.14035" fill="white"/>
<rect x="34.6606" y="28.2631" width="3.41608" height="3.14035" fill="white"/>
<rect x="38.0769" y="28.2631" width="3.41608" height="3.14035" fill="black"/>
<rect x="41.4929" y="28.2631" width="3.41608" height="3.14035" fill="white"/>
<rect x="44.9089" y="28.2631" width="3.41608" height="3.14035" fill="white"/>
<rect x="48.3252" y="28.2631" width="3.41608" height="3.14035" fill="black"/>
<rect x="51.741" y="28.2631" width="3.41608" height="3.14035" fill="black"/>
<rect x="55.1575" y="28.2631" width="3.41608" height="3.14035" fill="white"/>
<rect x="58.5732" y="28.2631" width="3.41608" height="3.14035" fill="black"/>
<rect x="79.0696" y="28.2631" width="3.41608" height="3.14035" fill="#3F3F3F"/>
<rect x="82.4858" y="28.2631" width="3.41608" height="3.14035" fill="#73007D"/>
<rect x="85.9019" y="28.2631" width="3.41608" height="3.14035" fill="#73007D"/>
<rect x="89.3181" y="28.2631" width="3.41608" height="3.14035" fill="#73007D"/>
<rect x="92.7341" y="28.2631" width="3.41608" height="3.14035" fill="white"/>
<rect x="96.15" y="28.2631" width="3.41608" height="3.14035" fill="#D48761"/>
<rect x="99.5662" y="28.2631" width="3.41608" height="3.14035" fill="#D48761"/>
<rect x="102.982" y="28.2631" width="3.41608" height="3.14035" fill="#D48761"/>
<rect x="106.398" y="28.2631" width="3.41608" height="3.14035" fill="#D48761"/>
<rect x="109.814" y="28.2631" width="3.41608" height="3.14035" fill="white"/>
<rect x="113.231" y="28.2631" width="3.41608" height="3.14035" fill="#73007D"/>
<rect x="20.9966" y="31.4036" width="3.41608" height="3.14035" fill="black"/>
<rect x="24.4126" y="31.4036" width="3.41608" height="3.14035" fill="black"/>
<rect x="27.8286" y="31.4036" width="3.41608" height="3.14035" fill="white"/>
<rect x="31.2446" y="31.4036" width="3.41608" height="3.14035" fill="white"/>
<rect x="34.6606" y="31.4036" width="3.41608" height="3.14035" fill="white"/>
<rect x="38.0769" y="31.4036" width="3.41608" height="3.14035" fill="black"/>
<rect x="41.4929" y="31.4036" width="3.41608" height="3.14035" fill="black"/>
<rect x="44.9089" y="31.4036" width="3.41608" height="3.14035" fill="white"/>
<rect x="48.3252" y="31.4036" width="3.41608" height="3.14035" fill="white"/>
<rect x="51.741" y="31.4036" width="3.41608" height="3.14035" fill="white"/>
<rect x="55.1575" y="31.4036" width="3.41608" height="3.14035" fill="white"/>
<rect x="58.5732" y="31.4036" width="3.41608" height="3.14035" fill="black"/>
<rect x="82.4858" y="31.4036" width="3.41608" height="3.14035" fill="#73007D"/>
<rect x="85.9019" y="31.4036" width="3.41608" height="3.14035" fill="#73007D"/>
<rect x="89.3181" y="31.4036" width="3.41608" height="3.14035" fill="white"/>
<rect x="92.7341" y="31.4036" width="3.41608" height="3.14035" fill="#D78F6B"/>
<rect x="96.15" y="31.4036" width="3.41608" height="3.14035" fill="#D48761"/>
<rect x="99.5662" y="31.4036" width="3.41608" height="3.14035" fill="#D48761"/>
<rect x="102.982" y="31.4036" width="3.41608" height="3.14035" fill="#D48761"/>
<rect x="106.398" y="31.4036" width="3.41608" height="3.14035" fill="white"/>
<rect x="109.814" y="31.4036" width="3.41608" height="3.14035" fill="white"/>
<rect x="113.231" y="31.4036" width="3.41608" height="3.14035" fill="white"/>
<rect x="20.9966" y="34.5438" width="3.41608" height="3.14035" fill="black"/>
<rect x="24.4126" y="34.5438" width="3.41608" height="3.14035" fill="black"/>
<rect x="27.8286" y="34.5438" width="3.41608" height="3.14035" fill="white"/>
<rect x="31.2446" y="34.5438" width="3.41608" height="3.14035" fill="white"/>
<rect x="34.6606" y="34.5438" width="3.41608" height="3.14035" fill="white"/>
<rect x="38.0769" y="34.5438" width="3.41608" height="3.14035" fill="black"/>
<rect x="41.4929" y="34.5438" width="3.41608" height="3.14035" fill="black"/>
<rect x="44.9089" y="34.5438" width="3.41608" height="3.14035" fill="white"/>
<rect x="48.3252" y="34.5438" width="3.41608" height="3.14035" fill="white"/>
<rect x="51.741" y="34.5438" width="3.41608" height="3.14035" fill="black"/>
<rect x="55.1575" y="34.5438" width="3.41608" height="3.14035" fill="black"/>
<rect x="58.5732" y="34.5438" width="3.41608" height="3.14035" fill="white"/>
<rect x="82.4858" y="34.5438" width="3.41608" height="3.14035" fill="#73007D"/>
<rect x="85.9019" y="34.5438" width="3.41608" height="3.14035" fill="black"/>
<rect x="89.3181" y="34.5438" width="3.41608" height="3.14035" fill="white"/>
<rect x="92.7341" y="34.5438" width="3.41608" height="3.14035" fill="#ECECEC"/>
<rect x="96.15" y="34.5438" width="3.41608" height="3.14035" fill="#D48761"/>
<rect x="99.5662" y="34.5438" width="3.41608" height="3.14035" fill="#D48761"/>
<rect x="102.982" y="34.5438" width="3.41608" height="3.14035" fill="#D48761"/>
<rect x="106.398" y="34.5438" width="3.41608" height="3.14035" fill="#ECECEC"/>
<rect x="109.814" y="34.5438" width="3.41608" height="3.14035" fill="#ECECEC"/>
<rect x="113.231" y="34.5438" width="3.41608" height="3.14035" fill="#E63E8B"/>
<rect x="116.647" y="34.5438" width="3.41608" height="3.14035" fill="white"/>
<rect x="120.063" y="34.5438" width="3.41608" height="3.14035" fill="white"/>
<rect x="17.5806" y="37.6842" width="3.41608" height="3.14035" fill="white"/>
<rect x="20.9966" y="37.6842" width="3.41608" height="3.14035" fill="white"/>
<rect x="24.4126" y="37.6842" width="3.41608" height="3.14035" fill="black"/>
<rect x="27.8286" y="37.6842" width="3.41608" height="3.14035" fill="black"/>
<rect x="31.2446" y="37.6842" width="3.41608" height="3.14035" fill="white"/>
<rect x="34.6606" y="37.6842" width="3.41608" height="3.14035" fill="black"/>
<rect x="38.0769" y="37.6842" width="3.41608" height="3.14035" fill="black"/>
<rect x="41.4929" y="37.6842" width="3.41608" height="3.14035" fill="black"/>
<rect x="44.9089" y="37.6842" width="3.41608" height="3.14035" fill="white"/>
<rect x="48.3252" y="37.6842" width="3.41608" height="3.14035" fill="white"/>
<rect x="51.741" y="37.6842" width="3.41608" height="3.14035" fill="black"/>
<rect x="55.1575" y="37.6842" width="3.41608" height="3.14035" fill="black"/>
<rect x="58.5732" y="37.6842" width="3.41608" height="3.14035" fill="white"/>
<rect x="79.0696" y="37.6842" width="3.41608" height="3.14035" fill="#760036"/>
<rect x="82.4858" y="37.6842" width="3.41608" height="3.14035" fill="white"/>
<rect x="85.9019" y="37.6842" width="3.41608" height="3.14035" fill="black"/>
<rect x="89.3181" y="37.6842" width="3.41608" height="3.14035" fill="#BD0E5E"/>
<rect x="92.7341" y="37.6842" width="3.41608" height="3.14035" fill="#BD0E5E"/>
<rect x="96.15" y="37.6842" width="3.41608" height="3.14035" fill="#ECECEC"/>
<rect x="99.5662" y="37.6842" width="3.41608" height="3.14035" fill="#D48761"/>
<rect x="102.982" y="37.6842" width="3.41608" height="3.14035" fill="#D48761"/>
<rect x="106.398" y="37.6842" width="3.41608" height="3.14035" fill="#ECECEC"/>
<rect x="109.814" y="37.6842" width="3.41608" height="3.14035" fill="#ECECEC"/>
<rect x="113.231" y="37.6842" width="3.41608" height="3.14035" fill="#E5257D"/>
<rect x="116.647" y="37.6842" width="3.41608" height="3.14035" fill="black"/>
<rect x="120.063" y="37.6842" width="3.41608" height="3.14035" fill="white"/>
<rect x="123.479" y="37.6842" width="3.41608" height="3.14035" fill="#3F3F3F"/>
<rect x="126.895" y="37.6842" width="3.41608" height="3.14035" fill="#3F3F3F"/>
<rect x="130.311" y="37.6842" width="3.41608" height="3.14035" fill="#EC9E77"/>
<rect x="133.727" y="37.6842" width="3.41608" height="3.14035" fill="#EC9E77"/>
<rect x="137.143" y="37.6842" width="3.41608" height="3.14035" fill="#EC9E77"/>
<rect x="17.5806" y="40.8246" width="3.41608" height="3.14035" fill="white"/>
<rect x="20.9966" y="40.8246" width="3.41608" height="3.14035" fill="black"/>
<rect x="24.4126" y="40.8246" width="3.41608" height="3.14035" fill="black"/>
<rect x="27.8286" y="40.8246" width="3.41608" height="3.14035" fill="black"/>
<rect x="31.2446" y="40.8246" width="3.41608" height="3.14035" fill="white"/>
<rect x="34.6606" y="40.8246" width="3.41608" height="3.14035" fill="white"/>
<rect x="38.0769" y="40.8246" width="3.41608" height="3.14035" fill="white"/>
<rect x="41.4929" y="40.8246" width="3.41608" height="3.14035" fill="black"/>
<rect x="44.9089" y="40.8246" width="3.41608" height="3.14035" fill="black"/>
<rect x="48.3252" y="40.8246" width="3.41608" height="3.14035" fill="#707070"/>
<rect x="51.741" y="40.8246" width="3.41608" height="3.14035" fill="black"/>
<rect x="55.1575" y="40.8246" width="3.41608" height="3.14035" fill="black"/>
<rect x="58.5732" y="40.8246" width="3.41608" height="3.14035" fill="white"/>
<rect x="75.6538" y="40.8246" width="3.41608" height="3.14035" fill="#760036"/>
<rect x="79.0696" y="40.8246" width="3.41608" height="3.14035" fill="#760036"/>
<rect x="82.4858" y="40.8246" width="3.41608" height="3.14035" fill="white"/>
<rect x="85.9019" y="40.8246" width="3.41608" height="3.14035" fill="black"/>
<rect x="89.3181" y="40.8246" width="3.41608" height="3.14035" fill="white"/>
<rect x="92.7341" y="40.8246" width="3.41608" height="3.14035" fill="#BD0E5E"/>
<rect x="96.15" y="40.8246" width="3.41608" height="3.14035" fill="#BD0E5E"/>
<rect x="99.5662" y="40.8246" width="3.41608" height="3.14035" fill="#ECECEC"/>
<rect x="102.982" y="40.8246" width="3.41608" height="3.14035" fill="#ECECEC"/>
<rect x="106.398" y="40.8246" width="3.41608" height="3.14035" fill="#ECECEC"/>
<rect x="109.814" y="40.8246" width="3.41608" height="3.14035" fill="#ECECEC"/>
<rect x="113.231" y="40.8246" width="3.41608" height="3.14035" fill="#E5257D"/>
<rect x="116.647" y="40.8246" width="3.41608" height="3.14035" fill="black"/>
<rect x="120.063" y="40.8246" width="3.41608" height="3.14035" fill="white"/>
<rect x="130.311" y="40.8246" width="3.41608" height="3.14035" fill="#EC9E77"/>
<rect x="133.727" y="40.8246" width="3.41608" height="3.14035" fill="#EC9E77"/>
<rect x="137.143" y="40.8246" width="3.41608" height="3.14035" fill="#EC9E77"/>
<rect x="140.559" y="40.8246" width="3.41608" height="3.14035" fill="#EC9E77"/>
<rect x="14.1642" y="43.9649" width="3.41608" height="3.14035" fill="black"/>
<rect x="17.5806" y="43.9649" width="3.41608" height="3.14035" fill="black"/>
<rect x="20.9966" y="43.9649" width="3.41608" height="3.14035" fill="black"/>
<rect x="24.4126" y="43.9649" width="3.41608" height="3.14035" fill="black"/>
<rect x="27.8286" y="43.9649" width="3.41608" height="3.14035" fill="black"/>
<rect x="31.2446" y="43.9649" width="3.41608" height="3.14035" fill="white"/>
<rect x="34.6606" y="43.9649" width="3.41608" height="3.14035" fill="white"/>
<rect x="38.0769" y="43.9649" width="3.41608" height="3.14035" fill="white"/>
<rect x="41.4929" y="43.9649" width="3.41608" height="3.14035" fill="black"/>
<rect x="44.9089" y="43.9649" width="3.41608" height="3.14035" fill="black"/>
<rect x="48.3252" y="43.9649" width="3.41608" height="3.14035" fill="black"/>
<rect x="51.741" y="43.9649" width="3.41608" height="3.14035" fill="white"/>
<rect x="55.1575" y="43.9649" width="3.41608" height="3.14035" fill="white"/>
<rect x="58.5732" y="43.9649" width="3.41608" height="3.14035" fill="black"/>
<rect x="72.2375" y="43.9649" width="3.41608" height="3.14035" fill="#E5257D"/>
<rect x="75.6538" y="43.9649" width="3.41608" height="3.14035" fill="#E5257D"/>
<rect x="79.0696" y="43.9649" width="3.41608" height="3.14035" fill="#E5257D"/>
<rect x="82.4858" y="43.9649" width="3.41608" height="3.14035" fill="white"/>
<rect x="85.9019" y="43.9649" width="3.41608" height="3.14035" fill="white"/>
<rect x="89.3181" y="43.9649" width="3.41608" height="3.14035" fill="black"/>
<rect x="92.7341" y="43.9649" width="3.41608" height="3.14035" fill="#820940"/>
<rect x="96.15" y="43.9649" width="3.41608" height="3.14035" fill="#BD0E5E"/>
<rect x="99.5662" y="43.9649" width="3.41608" height="3.14035" fill="#BD0E5E"/>
<rect x="102.982" y="43.9649" width="3.41608" height="3.14035" fill="#ECECEC"/>
<rect x="106.398" y="43.9649" width="3.41608" height="3.14035" fill="#ECECEC"/>
<rect x="109.814" y="43.9649" width="3.41608" height="3.14035" fill="#E5257D"/>
<rect x="113.231" y="43.9649" width="3.41608" height="3.14035" fill="black"/>
<rect x="116.647" y="43.9649" width="3.41608" height="3.14035" fill="white"/>
<rect x="120.063" y="43.9649" width="3.41608" height="3.14035" fill="black"/>
<rect x="126.895" y="43.9649" width="3.41608" height="3.14035" fill="#E6267D"/>
<rect x="130.311" y="43.9649" width="3.41608" height="3.14035" fill="#E5257D"/>
<rect x="133.727" y="43.9649" width="3.41608" height="3.14035" fill="#E5257D"/>
<rect x="10.7483" y="47.1052" width="3.41608" height="3.14035" fill="black"/>
<rect x="14.1642" y="47.1052" width="3.41608" height="3.14035" fill="black"/>
<rect x="17.5806" y="47.1052" width="3.41608" height="3.14035" fill="white"/>
<rect x="20.9966" y="47.1052" width="3.41608" height="3.14035" fill="white"/>
<rect x="24.4126" y="47.1052" width="3.41608" height="3.14035" fill="white"/>
<rect x="27.8286" y="47.1052" width="3.41608" height="3.14035" fill="black"/>
<rect x="31.2446" y="47.1052" width="3.41608" height="3.14035" fill="white"/>
<rect x="34.6606" y="47.1052" width="3.41608" height="3.14035" fill="white"/>
<rect x="38.0769" y="47.1052" width="3.41608" height="3.14035" fill="black"/>
<rect x="41.4929" y="47.1052" width="3.41608" height="3.14035" fill="black"/>
<rect x="44.9089" y="47.1052" width="3.41608" height="3.14035" fill="black"/>
<rect x="48.3252" y="47.1052" width="3.41608" height="3.14035" fill="white"/>
<rect x="51.741" y="47.1052" width="3.41608" height="3.14035" fill="white"/>
<rect x="55.1575" y="47.1052" width="3.41608" height="3.14035" fill="#303030"/>
<rect x="58.5732" y="47.1052" width="3.41608" height="3.14035" fill="black"/>
<rect x="68.8214" y="47.1052" width="3.41608" height="3.14035" fill="#E5257D"/>
<rect x="72.2375" y="47.1052" width="3.41608" height="3.14035" fill="#E5257D"/>
<rect x="75.6538" y="47.1052" width="3.41608" height="3.14035" fill="#E5257D"/>
<rect x="79.0696" y="47.1052" width="3.41608" height="3.14035" fill="#E5257D"/>
<rect x="82.4858" y="47.1052" width="3.41608" height="3.14035" fill="#760036"/>
<rect x="85.9019" y="47.1052" width="3.41608" height="3.14035" fill="white"/>
<rect x="89.3181" y="47.1052" width="3.41608" height="3.14035" fill="white"/>
<rect x="92.7341" y="47.1052" width="3.41608" height="3.14035" fill="white"/>
<rect x="96.15" y="47.1052" width="3.41608" height="3.14035" fill="#760036"/>
<rect x="99.5662" y="47.1052" width="3.41608" height="3.14035" fill="#BD0E5E"/>
<rect x="102.982" y="47.1052" width="3.41608" height="3.14035" fill="white"/>
<rect x="106.398" y="47.1052" width="3.41608" height="3.14035" fill="#BD0E5E"/>
<rect x="109.814" y="47.1052" width="3.41608" height="3.14035" fill="#E5257D"/>
<rect x="113.231" y="47.1052" width="3.41608" height="3.14035" fill="#E5257D"/>
<rect x="116.647" y="47.1052" width="3.41608" height="3.14035" fill="white"/>
<rect x="120.063" y="47.1052" width="3.41608" height="3.14035" fill="#910042"/>
<rect x="126.895" y="47.1052" width="3.41608" height="3.14035" fill="#E5257D"/>
<rect x="130.311" y="47.1052" width="3.41608" height="3.14035" fill="#FF3A94"/>
<rect x="7.33203" y="50.2456" width="3.41608" height="3.14035" fill="white"/>
<rect x="10.7483" y="50.2456" width="3.41608" height="3.14035" fill="black"/>
<rect x="14.1642" y="50.2456" width="3.41608" height="3.14035" fill="white"/>
<rect x="17.5806" y="50.2456" width="3.41608" height="3.14035" fill="white"/>
<rect x="20.9966" y="50.2456" width="3.41608" height="3.14035" fill="white"/>
<rect x="24.4126" y="50.2456" width="3.41608" height="3.14035" fill="black"/>
<rect x="27.8286" y="50.2456" width="3.41608" height="3.14035" fill="black"/>
<rect x="31.2446" y="50.2456" width="3.41608" height="3.14035" fill="black"/>
<rect x="34.6606" y="50.2456" width="3.41608" height="3.14035" fill="white"/>
<rect x="38.0769" y="50.2456" width="3.41608" height="3.14035" fill="white"/>
<rect x="41.4929" y="50.2456" width="3.41608" height="3.14035" fill="black"/>
<rect x="44.9089" y="50.2456" width="3.41608" height="3.14035" fill="white"/>
<rect x="48.3252" y="50.2456" width="3.41608" height="3.14035" fill="white"/>
<rect x="51.741" y="50.2456" width="3.41608" height="3.14035" fill="white"/>
<rect x="55.1575" y="50.2456" width="3.41608" height="3.14035" fill="black"/>
<rect x="58.5732" y="50.2456" width="3.41608" height="3.14035" fill="black"/>
<rect x="68.8214" y="50.2456" width="3.41608" height="3.14035" fill="#E5257D"/>
<rect x="72.2375" y="50.2456" width="3.41608" height="3.14035" fill="#E5257D"/>
<rect x="75.6538" y="50.2456" width="3.41608" height="3.14035" fill="#E5257D"/>
<rect x="79.0696" y="50.2456" width="3.41608" height="3.14035" fill="#760036"/>
<rect x="85.9019" y="50.2456" width="3.41608" height="3.14035" fill="white"/>
<rect x="89.3181" y="50.2456" width="3.41608" height="3.14035" fill="black"/>
<rect x="92.7341" y="50.2456" width="3.41608" height="3.14035" fill="white"/>
<rect x="96.15" y="50.2456" width="3.41608" height="3.14035" fill="#760036"/>
<rect x="99.5662" y="50.2456" width="3.41608" height="3.14035" fill="#BD0E5E"/>
<rect x="102.982" y="50.2456" width="3.41608" height="3.14035" fill="black"/>
<rect x="106.398" y="50.2456" width="3.41608" height="3.14035" fill="white"/>
<rect x="109.814" y="50.2456" width="3.41608" height="3.14035" fill="#760036"/>
<rect x="113.231" y="50.2456" width="3.41608" height="3.14035" fill="#E5257D"/>
<rect x="116.647" y="50.2456" width="3.41608" height="3.14035" fill="black"/>
<rect x="120.063" y="50.2456" width="3.41608" height="3.14035" fill="#808080"/>
<rect x="123.479" y="50.2456" width="3.41608" height="3.14035" fill="#E5257D"/>
<rect x="126.895" y="50.2456" width="3.41608" height="3.14035" fill="#E5257D"/>
<rect x="130.311" y="50.2456" width="3.41608" height="3.14035" fill="#FF3A94"/>
<rect x="3.91602" y="53.3859" width="3.41608" height="3.14035" fill="white"/>
<rect x="7.33203" y="53.3859" width="3.41608" height="3.14035" fill="white"/>
<rect x="10.7483" y="53.3859" width="3.41608" height="3.14035" fill="#AFAFAF"/>
<rect x="14.1642" y="53.3859" width="3.41608" height="3.14035" fill="black"/>
<rect x="17.5806" y="53.3859" width="3.41608" height="3.14035" fill="white"/>
<rect x="20.9966" y="53.3859" width="3.41608" height="3.14035" fill="black"/>
<rect x="24.4126" y="53.3859" width="3.41608" height="3.14035" fill="black"/>
<rect x="27.8286" y="53.3859" width="3.41608" height="3.14035" fill="black"/>
<rect x="31.2446" y="53.3859" width="3.41608" height="3.14035" fill="black"/>
<rect x="34.6606" y="53.3859" width="3.41608" height="3.14035" fill="white"/>
<rect x="38.0769" y="53.3859" width="3.41608" height="3.14035" fill="white"/>
<rect x="41.4929" y="53.3859" width="3.41608" height="3.14035" fill="white"/>
<rect x="44.9089" y="53.3859" width="3.41608" height="3.14035" fill="black"/>
<rect x="48.3252" y="53.3859" width="3.41608" height="3.14035" fill="black"/>
<rect x="51.741" y="53.3859" width="3.41608" height="3.14035" fill="white"/>
<rect x="55.1575" y="53.3859" width="3.41608" height="3.14035" fill="black"/>
<rect x="58.5732" y="53.3859" width="3.41608" height="3.14035" fill="black"/>
<rect x="65.4055" y="53.3859" width="3.41608" height="3.14035" fill="#E5257D"/>
<rect x="68.8214" y="53.3859" width="3.41608" height="3.14035" fill="#FF3A94"/>
<rect x="72.2375" y="53.3859" width="3.41608" height="3.14035" fill="#E5257D"/>
<rect x="85.9019" y="53.3859" width="3.41608" height="3.14035" fill="white"/>
<rect x="89.3181" y="53.3859" width="3.41608" height="3.14035" fill="white"/>
<rect x="92.7341" y="53.3859" width="3.41608" height="3.14035" fill="black"/>
<rect x="96.15" y="53.3859" width="3.41608" height="3.14035" fill="#760036"/>
<rect x="99.5662" y="53.3859" width="3.41608" height="3.14035" fill="#760036"/>
<rect x="102.982" y="53.3859" width="3.41608" height="3.14035" fill="white"/>
<rect x="106.398" y="53.3859" width="3.41608" height="3.14035" fill="#760036"/>
<rect x="109.814" y="53.3859" width="3.41608" height="3.14035" fill="#BD0E5E"/>
<rect x="113.231" y="53.3859" width="3.41608" height="3.14035" fill="#E5257D"/>
<rect x="116.647" y="53.3859" width="3.41608" height="3.14035" fill="black"/>
<rect x="120.063" y="53.3859" width="3.41608" height="3.14035" fill="black"/>
<rect x="123.479" y="53.3859" width="3.41608" height="3.14035" fill="#E5257D"/>
<rect x="126.895" y="53.3859" width="3.41608" height="3.14035" fill="#E5257D"/>
<rect x="3.91602" y="56.5263" width="3.41608" height="3.14035" fill="black"/>
<rect x="7.33203" y="56.5263" width="3.41608" height="3.14035" fill="white"/>
<rect x="10.7483" y="56.5263" width="3.41608" height="3.14035" fill="black"/>
<rect x="14.1642" y="56.5263" width="3.41608" height="3.14035" fill="black"/>
<rect x="17.5806" y="56.5263" width="3.41608" height="3.14035" fill="black"/>
<rect x="20.9966" y="56.5263" width="3.41608" height="3.14035" fill="white"/>
<rect x="24.4126" y="56.5263" width="3.41608" height="3.14035" fill="black"/>
<rect x="27.8286" y="56.5263" width="3.41608" height="3.14035" fill="black"/>
<rect x="31.2446" y="56.5263" width="3.41608" height="3.14035" fill="white"/>
<rect x="34.6606" y="56.5263" width="3.41608" height="3.14035" fill="white"/>
<rect x="38.0769" y="56.5263" width="3.41608" height="3.14035" fill="white"/>
<rect x="41.4929" y="56.5263" width="3.41608" height="3.14035" fill="black"/>
<rect x="44.9089" y="56.5263" width="3.41608" height="3.14035" fill="black"/>
<rect x="48.3252" y="56.5263" width="3.41608" height="3.14035" fill="white"/>
<rect x="51.741" y="56.5263" width="3.41608" height="3.14035" fill="white"/>
<rect x="55.1575" y="56.5263" width="3.41608" height="3.14035" fill="white"/>
<rect x="58.5732" y="56.5263" width="3.41608" height="3.14035" fill="white"/>
<rect x="61.9894" y="56.5263" width="3.41608" height="3.14035" fill="#FF3A94"/>
<rect x="65.4055" y="56.5263" width="3.41608" height="3.14035" fill="#FF3A94"/>
<rect x="68.8214" y="56.5263" width="3.41608" height="3.14035" fill="#E5257D"/>
<rect x="72.2375" y="56.5263" width="3.41608" height="3.14035" fill="#C01463"/>
<rect x="85.9019" y="56.5263" width="3.41608" height="3.14035" fill="black"/>
<rect x="89.3181" y="56.5263" width="3.41608" height="3.14035" fill="#DFDFDF"/>
<rect x="92.7341" y="56.5263" width="3.41608" height="3.14035" fill="white"/>
<rect x="96.15" y="56.5263" width="3.41608" height="3.14035" fill="#760036"/>
<rect x="99.5662" y="56.5263" width="3.41608" height="3.14035" fill="#760036"/>
<rect x="102.982" y="56.5263" width="3.41608" height="3.14035" fill="#BD0E5E"/>
<rect x="106.398" y="56.5263" width="3.41608" height="3.14035" fill="#760036"/>
<rect x="109.814" y="56.5263" width="3.41608" height="3.14035" fill="#760036"/>
<rect x="113.231" y="56.5263" width="3.41608" height="3.14035" fill="white"/>
<rect x="116.647" y="56.5263" width="3.41608" height="3.14035" fill="white"/>
<rect x="120.063" y="56.5263" width="3.41608" height="3.14035" fill="#E5257D"/>
<rect x="123.479" y="56.5263" width="3.41608" height="3.14035" fill="#E5257D"/>
<rect x="0.5" y="59.6666" width="3.41608" height="3.14035" fill="black"/>
<rect x="3.91602" y="59.6666" width="3.41608" height="3.14035" fill="black"/>
<rect x="7.33203" y="59.6666" width="3.41608" height="3.14035" fill="black"/>
<rect x="10.7483" y="59.6666" width="3.41608" height="3.14035" fill="white"/>
<rect x="14.1642" y="59.6666" width="3.41608" height="3.14035" fill="black"/>
<rect x="17.5806" y="59.6666" width="3.41608" height="3.14035" fill="white"/>
<rect x="20.9966" y="59.6666" width="3.41608" height="3.14035" fill="white"/>
<rect x="24.4126" y="59.6666" width="3.41608" height="3.14035" fill="white"/>
<rect x="27.8286" y="59.6666" width="3.41608" height="3.14035" fill="black"/>
<rect x="31.2446" y="59.6666" width="3.41608" height="3.14035" fill="white"/>
<rect x="34.6606" y="59.6666" width="3.41608" height="3.14035" fill="white"/>
<rect x="38.0769" y="59.6666" width="3.41608" height="3.14035" fill="#DFDFDF"/>
<rect x="41.4929" y="59.6666" width="3.41608" height="3.14035" fill="black"/>
<rect x="44.9089" y="59.6666" width="3.41608" height="3.14035" fill="black"/>
<rect x="48.3252" y="59.6666" width="3.41608" height="3.14035" fill="white"/>
<rect x="51.741" y="59.6666" width="3.41608" height="3.14035" fill="white"/>
<rect x="55.1575" y="59.6666" width="3.41608" height="3.14035" fill="white"/>
<rect x="61.9894" y="59.6666" width="3.41608" height="3.14035" fill="#FF3A94"/>
<rect x="65.4055" y="59.6666" width="3.41608" height="3.14035" fill="#E5257D"/>
<rect x="68.8214" y="59.6666" width="3.41608" height="3.14035" fill="#E5257D"/>
<rect x="72.2375" y="59.6666" width="3.41608" height="3.14035" fill="#A60950"/>
<rect x="89.3181" y="59.6666" width="3.41608" height="3.14035" fill="black"/>
<rect x="92.7341" y="59.6666" width="3.41608" height="3.14035" fill="white"/>
<rect x="96.15" y="59.6666" width="3.41608" height="3.14035" fill="#BD0E5E"/>
<rect x="99.5662" y="59.6666" width="3.41608" height="3.14035" fill="#BD0E5E"/>
<rect x="102.982" y="59.6666" width="3.41608" height="3.14035" fill="#760036"/>
<rect x="106.398" y="59.6666" width="3.41608" height="3.14035" fill="#BD0E5E"/>
<rect x="109.814" y="59.6666" width="3.41608" height="3.14035" fill="#BD0E5E"/>
<rect x="113.231" y="59.6666" width="3.41608" height="3.14035" fill="white"/>
<rect x="116.647" y="59.6666" width="3.41608" height="3.14035" fill="white"/>
<rect x="120.063" y="59.6666" width="3.41608" height="3.14035" fill="#E5257D"/>
<rect x="123.479" y="59.6666" width="3.41608" height="3.14035" fill="#E5257D"/>
<rect x="0.5" y="62.807" width="3.41608" height="3.14035" fill="white"/>
<rect x="3.91602" y="62.807" width="3.41608" height="3.14035" fill="black"/>
<rect x="7.33203" y="62.807" width="3.41608" height="3.14035" fill="white"/>
<rect x="10.7483" y="62.807" width="3.41608" height="3.14035" fill="white"/>
<rect x="14.1642" y="62.807" width="3.41608" height="3.14035" fill="white"/>
<rect x="17.5806" y="62.807" width="3.41608" height="3.14035" fill="white"/>
<rect x="20.9966" y="62.807" width="3.41608" height="3.14035" fill="white"/>
<rect x="24.4126" y="62.807" width="3.41608" height="3.14035" fill="black"/>
<rect x="27.8286" y="62.807" width="3.41608" height="3.14035" fill="black"/>
<rect x="31.2446" y="62.807" width="3.41608" height="3.14035" fill="black"/>
<rect x="34.6606" y="62.807" width="3.41608" height="3.14035" fill="black"/>
<rect x="38.0769" y="62.807" width="3.41608" height="3.14035" fill="black"/>
<rect x="41.4929" y="62.807" width="3.41608" height="3.14035" fill="black"/>
<rect x="44.9089" y="62.807" width="3.41608" height="3.14035" fill="white"/>
<rect x="48.3252" y="62.807" width="3.41608" height="3.14035" fill="white"/>
<rect x="51.741" y="62.807" width="3.41608" height="3.14035" fill="white"/>
<rect x="61.9894" y="62.807" width="3.41608" height="3.14035" fill="#E5257D"/>
<rect x="65.4055" y="62.807" width="3.41608" height="3.14035" fill="#FF3A94"/>
<rect x="68.8214" y="62.807" width="3.41608" height="3.14035" fill="#E5257D"/>
<rect x="72.2375" y="62.807" width="3.41608" height="3.14035" fill="#E5257D"/>
<rect x="89.3181" y="62.807" width="3.41608" height="3.14035" fill="black"/>
<rect x="92.7341" y="62.807" width="3.41608" height="3.14035" fill="#707070"/>
<rect x="96.15" y="62.807" width="3.41608" height="3.14035" fill="#BD0E5E"/>
<rect x="99.5662" y="62.807" width="3.41608" height="3.14035" fill="#BD0E5E"/>
<rect x="102.982" y="62.807" width="3.41608" height="3.14035" fill="#BD0E5E"/>
<rect x="106.398" y="62.807" width="3.41608" height="3.14035" fill="#BD0E5E"/>
<rect x="109.814" y="62.807" width="3.41608" height="3.14035" fill="#BD0E5E"/>
<rect x="113.231" y="62.807" width="3.41608" height="3.14035" fill="white"/>
<rect x="116.647" y="62.807" width="3.41608" height="3.14035" fill="white"/>
<rect x="0.5" y="65.9474" width="3.41608" height="3.14035" fill="white"/>
<rect x="3.91602" y="65.9473" width="3.41608" height="3.14035" fill="white"/>
<rect x="7.33203" y="65.9473" width="3.41608" height="3.14035" fill="white"/>
<rect x="10.7483" y="65.9473" width="3.41608" height="3.14035" fill="white"/>
<rect x="14.1642" y="65.9473" width="3.41608" height="3.14035" fill="black"/>
<rect x="17.5806" y="65.9473" width="3.41608" height="3.14035" fill="black"/>
<rect x="20.9966" y="65.9473" width="3.41608" height="3.14035" fill="white"/>
<rect x="24.4126" y="65.9473" width="3.41608" height="3.14035" fill="black"/>
<rect x="27.8286" y="65.9473" width="3.41608" height="3.14035" fill="black"/>
<rect x="31.2446" y="65.9473" width="3.41608" height="3.14035" fill="black"/>
<rect x="34.6606" y="65.9473" width="3.41608" height="3.14035" fill="white"/>
<rect x="38.0769" y="65.9473" width="3.41608" height="3.14035" fill="white"/>
<rect x="41.4929" y="65.9473" width="3.41608" height="3.14035" fill="black"/>
<rect x="44.9089" y="65.9473" width="3.41608" height="3.14035" fill="white"/>
<rect x="48.3252" y="65.9473" width="3.41608" height="3.14035" fill="white"/>
<rect x="65.4055" y="65.9473" width="3.41608" height="3.14035" fill="#E5257D"/>
<rect x="68.8214" y="65.9473" width="3.41608" height="3.14035" fill="#E5257D"/>
<rect x="72.2375" y="65.9473" width="3.41608" height="3.14035" fill="#E5257D"/>
<rect x="75.6538" y="65.9473" width="3.41608" height="3.14035" fill="#A60950"/>
<rect x="79.0696" y="65.9473" width="3.41608" height="3.14035" fill="#C01463"/>
<rect x="89.3181" y="65.9473" width="3.41608" height="3.14035" fill="black"/>
<rect x="92.7341" y="65.9473" width="3.41608" height="3.14035" fill="black"/>
<rect x="96.15" y="65.9473" width="3.41608" height="3.14035" fill="#BD0E5E"/>
<rect x="99.5662" y="65.9473" width="3.41608" height="3.14035" fill="#BD0E5E"/>
<rect x="102.982" y="65.9473" width="3.41608" height="3.14035" fill="#570028"/>
<rect x="106.398" y="65.9473" width="3.41608" height="3.14035" fill="#570028"/>
<rect x="109.814" y="65.9473" width="3.41608" height="3.14035" fill="#570028"/>
<rect x="113.231" y="65.9473" width="3.41608" height="3.14035" fill="black"/>
<rect x="116.647" y="65.9473" width="3.41608" height="3.14035" fill="black"/>
<rect x="0.5" y="69.0877" width="3.41608" height="3.14035" fill="white"/>
<rect x="3.91602" y="69.0876" width="3.41608" height="3.14035" fill="white"/>
<rect x="7.33203" y="69.0876" width="3.41608" height="3.14035" fill="black"/>
<rect x="10.7483" y="69.0876" width="3.41608" height="3.14035" fill="white"/>
<rect x="14.1642" y="69.0876" width="3.41608" height="3.14035" fill="black"/>
<rect x="17.5806" y="69.0876" width="3.41608" height="3.14035" fill="black"/>
<rect x="20.9966" y="69.0876" width="3.41608" height="3.14035" fill="black"/>
<rect x="24.4126" y="69.0876" width="3.41608" height="3.14035" fill="black"/>
<rect x="27.8286" y="69.0876" width="3.41608" height="3.14035" fill="black"/>
<rect x="31.2446" y="69.0876" width="3.41608" height="3.14035" fill="black"/>
<rect x="34.6606" y="69.0876" width="3.41608" height="3.14035" fill="white"/>
<rect x="38.0769" y="69.0876" width="3.41608" height="3.14035" fill="white"/>
<rect x="41.4929" y="69.0876" width="3.41608" height="3.14035" fill="black"/>
<rect x="44.9089" y="69.0876" width="3.41608" height="3.14035" fill="black"/>
<rect x="48.3252" y="69.0876" width="3.41608" height="3.14035" fill="black"/>
<rect x="68.8214" y="69.0876" width="3.41608" height="3.14035" fill="#E42580"/>
<rect x="72.2375" y="69.0876" width="3.41608" height="3.14035" fill="#E5257D"/>
<rect x="75.6538" y="69.0876" width="3.41608" height="3.14035" fill="#E5257D"/>
<rect x="79.0696" y="69.0876" width="3.41608" height="3.14035" fill="#E5257D"/>
<rect x="82.4858" y="69.0876" width="3.41608" height="3.14035" fill="#A60950"/>
<rect x="85.9019" y="69.0876" width="3.41608" height="3.14035" fill="white"/>
<rect x="89.3181" y="69.0876" width="3.41608" height="3.14035" fill="black"/>
<rect x="92.7341" y="69.0876" width="3.41608" height="3.14035" fill="#202020"/>
<rect x="96.15" y="69.0876" width="3.41608" height="3.14035" fill="#570028"/>
<rect x="99.5662" y="69.0876" width="3.41608" height="3.14035" fill="#570028"/>
<rect x="102.982" y="69.0876" width="3.41608" height="3.14035" fill="#910042"/>
<rect x="106.398" y="69.0876" width="3.41608" height="3.14035" fill="#910042"/>
<rect x="109.814" y="69.0876" width="3.41608" height="3.14035" fill="black"/>
<rect x="113.231" y="69.0876" width="3.41608" height="3.14035" fill="black"/>
<rect x="116.647" y="69.0876" width="3.41608" height="3.14035" fill="black"/>
<rect x="0.5" y="72.228" width="3.41608" height="3.14035" fill="white"/>
<rect x="3.91602" y="72.228" width="3.41608" height="3.14035" fill="white"/>
<rect x="7.33203" y="72.228" width="3.41608" height="3.14035" fill="black"/>
<rect x="10.7483" y="72.228" width="3.41608" height="3.14035" fill="black"/>
<rect x="14.1642" y="72.228" width="3.41608" height="3.14035" fill="black"/>
<rect x="17.5806" y="72.228" width="3.41608" height="3.14035" fill="black"/>
<rect x="20.9966" y="72.228" width="3.41608" height="3.14035" fill="#CFCFCF"/>
<rect x="24.4126" y="72.228" width="3.41608" height="3.14035" fill="white"/>
<rect x="27.8286" y="72.228" width="3.41608" height="3.14035" fill="black"/>
<rect x="31.2446" y="72.228" width="3.41608" height="3.14035" fill="white"/>
<rect x="34.6606" y="72.228" width="3.41608" height="3.14035" fill="white"/>
<rect x="38.0769" y="72.228" width="3.41608" height="3.14035" fill="black"/>
<rect x="41.4929" y="72.228" width="3.41608" height="3.14035" fill="black"/>
<rect x="44.9089" y="72.228" width="3.41608" height="3.14035" fill="black"/>
<rect x="75.6538" y="72.228" width="3.41608" height="3.14035" fill="#E5257D"/>
<rect x="79.0696" y="72.228" width="3.41608" height="3.14035" fill="#E5257D"/>
<rect x="82.4858" y="72.228" width="3.41608" height="3.14035" fill="#E5257D"/>
<rect x="85.9019" y="72.228" width="3.41608" height="3.14035" fill="#EC9E77"/>
<rect x="89.3181" y="72.228" width="3.41608" height="3.14035" fill="white"/>
<rect x="92.7341" y="72.228" width="3.41608" height="3.14035" fill="black"/>
<rect x="96.15" y="72.228" width="3.41608" height="3.14035" fill="black"/>
<rect x="99.5662" y="72.228" width="3.41608" height="3.14035" fill="#910042"/>
<rect x="102.982" y="72.228" width="3.41608" height="3.14035" fill="#910042"/>
<rect x="106.398" y="72.228" width="3.41608" height="3.14035" fill="#910042"/>
<rect x="109.814" y="72.228" width="3.41608" height="3.14035" fill="black"/>
<rect x="113.231" y="72.228" width="3.41608" height="3.14035" fill="black"/>
<rect x="116.647" y="72.228" width="3.41608" height="3.14035" fill="white"/>
<rect x="0.5" y="75.3684" width="3.41608" height="3.14035" fill="white"/>
<rect x="3.91602" y="75.3684" width="3.41608" height="3.14035" fill="white"/>
<rect x="7.33203" y="75.3684" width="3.41608" height="3.14035" fill="black"/>
<rect x="10.7483" y="75.3684" width="3.41608" height="3.14035" fill="black"/>
<rect x="14.1642" y="75.3684" width="3.41608" height="3.14035" fill="black"/>
<rect x="17.5806" y="75.3684" width="3.41608" height="3.14035" fill="black"/>
<rect x="20.9966" y="75.3684" width="3.41608" height="3.14035" fill="white"/>
<rect x="24.4126" y="75.3684" width="3.41608" height="3.14035" fill="white"/>
<rect x="27.8286" y="75.3684" width="3.41608" height="3.14035" fill="white"/>
<rect x="31.2446" y="75.3684" width="3.41608" height="3.14035" fill="#DFDFDF"/>
<rect x="34.6606" y="75.3684" width="3.41608" height="3.14035" fill="black"/>
<rect x="38.0769" y="75.3684" width="3.41608" height="3.14035" fill="black"/>
<rect x="41.4929" y="75.3684" width="3.41608" height="3.14035" fill="black"/>
<rect x="79.0696" y="75.3684" width="3.41608" height="3.14035" fill="#E5257D"/>
<rect x="82.4858" y="75.3684" width="3.41608" height="3.14035" fill="#E5257D"/>
<rect x="85.9019" y="75.3684" width="3.41608" height="3.14035" fill="#EC9E77"/>
<rect x="89.3181" y="75.3684" width="3.41608" height="3.14035" fill="#EC9E77"/>
<rect x="92.7341" y="75.3684" width="3.41608" height="3.14035" fill="#EC9E77"/>
<rect x="96.15" y="75.3684" width="3.41608" height="3.14035" fill="black"/>
<rect x="99.5662" y="75.3684" width="3.41608" height="3.14035" fill="#E5257D"/>
<rect x="102.982" y="75.3684" width="3.41608" height="3.14035" fill="#910042"/>
<rect x="106.398" y="75.3684" width="3.41608" height="3.14035" fill="#E5257D"/>
<rect x="109.814" y="75.3684" width="3.41608" height="3.14035" fill="white"/>
<rect x="113.231" y="75.3684" width="3.41608" height="3.14035" fill="white"/>
<rect x="116.647" y="75.3684" width="3.41608" height="3.14035" fill="white"/>
<rect x="0.5" y="78.5087" width="3.41608" height="3.14035" fill="black"/>
<rect x="3.91602" y="78.5087" width="3.41608" height="3.14035" fill="white"/>
<rect x="7.33203" y="78.5087" width="3.41608" height="3.14035" fill="black"/>
<rect x="10.7483" y="78.5087" width="3.41608" height="3.14035" fill="black"/>
<rect x="14.1642" y="78.5087" width="3.41608" height="3.14035" fill="white"/>
<rect x="17.5806" y="78.5087" width="3.41608" height="3.14035" fill="black"/>
<rect x="20.9966" y="78.5087" width="3.41608" height="3.14035" fill="white"/>
<rect x="24.4126" y="78.5087" width="3.41608" height="3.14035" fill="white"/>
<rect x="27.8286" y="78.5087" width="3.41608" height="3.14035" fill="white"/>
<rect x="31.2446" y="78.5087" width="3.41608" height="3.14035" fill="black"/>
<rect x="34.6606" y="78.5087" width="3.41608" height="3.14035" fill="white"/>
<rect x="38.0769" y="78.5087" width="3.41608" height="3.14035" fill="black"/>
<rect x="85.9019" y="78.5087" width="3.41608" height="3.14035" fill="white"/>
<rect x="89.3181" y="78.5087" width="3.41608" height="3.14035" fill="#EC9E77"/>
<rect x="92.7341" y="78.5087" width="3.41608" height="3.14035" fill="#EC9E77"/>
<rect x="96.15" y="78.5087" width="3.41608" height="3.14035" fill="white"/>
<rect x="99.5662" y="78.5087" width="3.41608" height="3.14035" fill="#E5257D"/>
<rect x="102.982" y="78.5087" width="3.41608" height="3.14035" fill="#E5257D"/>
<rect x="106.398" y="78.5087" width="3.41608" height="3.14035" fill="#910042"/>
<rect x="109.814" y="78.5087" width="3.41608" height="3.14035" fill="#E5257D"/>
<rect x="113.231" y="78.5087" width="3.41608" height="3.14035" fill="black"/>
<rect x="116.647" y="78.5087" width="3.41608" height="3.14035" fill="black"/>
<rect x="0.5" y="81.649" width="3.41608" height="3.14035" fill="black"/>
<rect x="3.91602" y="81.649" width="3.41608" height="3.14035" fill="black"/>
<rect x="7.33203" y="81.649" width="3.41608" height="3.14035" fill="black"/>
<rect x="10.7483" y="81.649" width="3.41608" height="3.14035" fill="black"/>
<rect x="14.1642" y="81.649" width="3.41608" height="3.14035" fill="white"/>
<rect x="17.5806" y="81.649" width="3.41608" height="3.14035" fill="white"/>
<rect x="20.9966" y="81.649" width="3.41608" height="3.14035" fill="white"/>
<rect x="24.4126" y="81.649" width="3.41608" height="3.14035" fill="white"/>
<rect x="27.8286" y="81.649" width="3.41608" height="3.14035" fill="white"/>
<rect x="31.2446" y="81.649" width="3.41608" height="3.14035" fill="black"/>
<rect x="34.6606" y="81.649" width="3.41608" height="3.14035" fill="white"/>
<rect x="82.4858" y="81.649" width="3.41608" height="3.14035" fill="white"/>
<rect x="85.9019" y="81.649" width="3.41608" height="3.14035" fill="black"/>
<rect x="89.3181" y="81.649" width="3.41608" height="3.14035" fill="black"/>
<rect x="92.7341" y="81.649" width="3.41608" height="3.14035" fill="white"/>
<rect x="96.15" y="81.649" width="3.41608" height="3.14035" fill="white"/>
<rect x="99.5662" y="81.649" width="3.41608" height="3.14035" fill="#910042"/>
<rect x="102.982" y="81.649" width="3.41608" height="3.14035" fill="#910042"/>
<rect x="106.398" y="81.649" width="3.41608" height="3.14035" fill="#E5257D"/>
<rect x="109.814" y="81.649" width="3.41608" height="3.14035" fill="#910042"/>
<rect x="113.231" y="81.649" width="3.41608" height="3.14035" fill="black"/>
<rect x="116.647" y="81.649" width="3.41608" height="3.14035" fill="black"/>
<rect x="0.5" y="84.7894" width="3.41608" height="3.14035" fill="black"/>
<rect x="3.91602" y="84.7894" width="3.41608" height="3.14035" fill="black"/>
<rect x="7.33203" y="84.7894" width="3.41608" height="3.14035" fill="white"/>
<rect x="10.7483" y="84.7894" width="3.41608" height="3.14035" fill="black"/>
<rect x="14.1642" y="84.7894" width="3.41608" height="3.14035" fill="white"/>
<rect x="17.5806" y="84.7894" width="3.41608" height="3.14035" fill="white"/>
<rect x="20.9966" y="84.7894" width="3.41608" height="3.14035" fill="black"/>
<rect x="24.4126" y="84.7894" width="3.41608" height="3.14035" fill="white"/>
<rect x="27.8286" y="84.7894" width="3.41608" height="3.14035" fill="#303030"/>
<rect x="31.2446" y="84.7894" width="3.41608" height="3.14035" fill="black"/>
<rect x="34.6606" y="84.7894" width="3.41608" height="3.14035" fill="white"/>
<rect x="85.9019" y="84.7894" width="3.41608" height="3.14035" fill="#E5257D"/>
<rect x="89.3181" y="84.7894" width="3.41608" height="3.14035" fill="#E5257D"/>
<rect x="92.7341" y="84.7894" width="3.41608" height="3.14035" fill="#910042"/>
<rect x="96.15" y="84.7894" width="3.41608" height="3.14035" fill="#E5257D"/>
<rect x="99.5662" y="84.7894" width="3.41608" height="3.14035" fill="#E5257D"/>
<rect x="102.982" y="84.7894" width="3.41608" height="3.14035" fill="#910042"/>
<rect x="106.398" y="84.7894" width="3.41608" height="3.14035" fill="#E5257D"/>
<rect x="109.814" y="84.7894" width="3.41608" height="3.14035" fill="#E5257D"/>
<rect x="113.231" y="84.7894" width="3.41608" height="3.14035" fill="#910042"/>
<rect x="116.647" y="84.7894" width="3.41608" height="3.14035" fill="#E5257D"/>
<rect x="0.5" y="87.9298" width="3.41608" height="3.14035" fill="black"/>
<rect x="3.91602" y="87.9298" width="3.41608" height="3.14035" fill="black"/>
<rect x="7.33203" y="87.9298" width="3.41608" height="3.14035" fill="white"/>
<rect x="10.7483" y="87.9298" width="3.41608" height="3.14035" fill="white"/>
<rect x="14.1642" y="87.9298" width="3.41608" height="3.14035" fill="white"/>
<rect x="17.5806" y="87.9298" width="3.41608" height="3.14035" fill="white"/>
<rect x="20.9966" y="87.9298" width="3.41608" height="3.14035" fill="black"/>
<rect x="24.4126" y="87.9298" width="3.41608" height="3.14035" fill="black"/>
<rect x="27.8286" y="87.9298" width="3.41608" height="3.14035" fill="black"/>
<rect x="31.2446" y="87.9298" width="3.41608" height="3.14035" fill="black"/>
<rect x="82.4858" y="87.9298" width="3.41608" height="3.14035" fill="#910042"/>
<rect x="85.9019" y="87.9298" width="3.41608" height="3.14035" fill="#E5257D"/>
<rect x="89.3181" y="87.9298" width="3.41608" height="3.14035" fill="#E5257D"/>
<rect x="92.7341" y="87.9298" width="3.41608" height="3.14035" fill="#910042"/>
<rect x="96.15" y="87.9298" width="3.41608" height="3.14035" fill="#E5257D"/>
<rect x="99.5662" y="87.9298" width="3.41608" height="3.14035" fill="#A7004C"/>
<rect x="102.982" y="87.9298" width="3.41608" height="3.14035" fill="#E5257D"/>
<rect x="106.398" y="87.9298" width="3.41608" height="3.14035" fill="#910042"/>
<rect x="109.814" y="87.9298" width="3.41608" height="3.14035" fill="#E5257D"/>
<rect x="113.231" y="87.9298" width="3.41608" height="3.14035" fill="#E5257D"/>
<rect x="116.647" y="87.9298" width="3.41608" height="3.14035" fill="#CF005E"/>
<rect x="0.5" y="91.0701" width="3.41608" height="3.14035" fill="white"/>
<rect x="3.91602" y="91.0701" width="3.41608" height="3.14035" fill="black"/>
<rect x="7.33203" y="91.0701" width="3.41608" height="3.14035" fill="white"/>
<rect x="10.7483" y="91.0701" width="3.41608" height="3.14035" fill="white"/>
<rect x="14.1642" y="91.0701" width="3.41608" height="3.14035" fill="black"/>
<rect x="17.5806" y="91.0701" width="3.41608" height="3.14035" fill="white"/>
<rect x="20.9966" y="91.0701" width="3.41608" height="3.14035" fill="black"/>
<rect x="24.4126" y="91.0701" width="3.41608" height="3.14035" fill="black"/>
<rect x="27.8286" y="91.0701" width="3.41608" height="3.14035" fill="white"/>
<rect x="31.2446" y="91.0701" width="3.41608" height="3.14035" fill="black"/>
<rect x="82.4858" y="91.0701" width="3.41608" height="3.14035" fill="#E5257D"/>
<rect x="85.9019" y="91.0701" width="3.41608" height="3.14035" fill="#E5257D"/>
<rect x="89.3181" y="91.0701" width="3.41608" height="3.14035" fill="#910042"/>
<rect x="92.7341" y="91.0701" width="3.41608" height="3.14035" fill="#E5257D"/>
<rect x="96.15" y="91.0701" width="3.41608" height="3.14035" fill="#E5257D"/>
<rect x="99.5662" y="91.0701" width="3.41608" height="3.14035" fill="#E5257D"/>
<rect x="102.982" y="91.0701" width="3.41608" height="3.14035" fill="#E5257D"/>
<rect x="106.398" y="91.0701" width="3.41608" height="3.14035" fill="#A7004C"/>
<rect x="109.814" y="91.0701" width="3.41608" height="3.14035" fill="#E5257D"/>
<rect x="113.231" y="91.0701" width="3.41608" height="3.14035" fill="#E5257D"/>
<rect x="116.647" y="91.0701" width="3.41608" height="3.14035" fill="#910042"/>
<rect x="120.063" y="91.0701" width="3.41608" height="3.14035" fill="#E5257D"/>
<rect x="0.5" y="94.2104" width="3.41608" height="3.14035" fill="white"/>
<rect x="3.91602" y="94.2104" width="3.41608" height="3.14035" fill="black"/>
<rect x="7.33203" y="94.2104" width="3.41608" height="3.14035" fill="white"/>
<rect x="10.7483" y="94.2104" width="3.41608" height="3.14035" fill="white"/>
<rect x="14.1642" y="94.2104" width="3.41608" height="3.14035" fill="black"/>
<rect x="17.5806" y="94.2104" width="3.41608" height="3.14035" fill="#EFEFEF"/>
<rect x="20.9966" y="94.2104" width="3.41608" height="3.14035" fill="black"/>
<rect x="24.4126" y="94.2104" width="3.41608" height="3.14035" fill="black"/>
<rect x="27.8286" y="94.2104" width="3.41608" height="3.14035" fill="white"/>
<rect x="31.2446" y="94.2104" width="3.41608" height="3.14035" fill="white"/>
<rect x="82.4858" y="94.2104" width="3.41608" height="3.14035" fill="#E5257D"/>
<rect x="85.9019" y="94.2104" width="3.41608" height="3.14035" fill="#910042"/>
<rect x="89.3181" y="94.2104" width="3.41608" height="3.14035" fill="#E5257D"/>
<rect x="92.7341" y="94.2104" width="3.41608" height="3.14035" fill="#E5257D"/>
<rect x="96.15" y="94.2104" width="3.41608" height="3.14035" fill="#A7004C"/>
<rect x="99.5662" y="94.2104" width="3.41608" height="3.14035" fill="#E5257D"/>
<rect x="102.982" y="94.2104" width="3.41608" height="3.14035" fill="#E5257D"/>
<rect x="106.398" y="94.2104" width="3.41608" height="3.14035" fill="#910042"/>
<rect x="109.814" y="94.2104" width="3.41608" height="3.14035" fill="#E5257D"/>
<rect x="113.231" y="94.2104" width="3.41608" height="3.14035" fill="#E5257D"/>
<rect x="116.647" y="94.2104" width="3.41608" height="3.14035" fill="#910042"/>
<rect x="120.063" y="94.2104" width="3.41608" height="3.14035" fill="#E5257D"/>
<rect x="3.91602" y="97.3508" width="3.41608" height="3.14035" fill="black"/>
<rect x="7.33203" y="97.3508" width="3.41608" height="3.14035" fill="black"/>
<rect x="10.7483" y="97.3508" width="3.41608" height="3.14035" fill="white"/>
<rect x="14.1642" y="97.3508" width="3.41608" height="3.14035" fill="black"/>
<rect x="17.5806" y="97.3508" width="3.41608" height="3.14035" fill="black"/>
<rect x="20.9966" y="97.3508" width="3.41608" height="3.14035" fill="black"/>
<rect x="24.4126" y="97.3508" width="3.41608" height="3.14035" fill="black"/>
<rect x="27.8286" y="97.3508" width="3.41608" height="3.14035" fill="white"/>
<rect x="31.2446" y="97.3508" width="3.41608" height="3.14035" fill="white"/>
<rect x="79.0696" y="97.3508" width="3.41608" height="3.14035" fill="#E5257D"/>
<rect x="82.4858" y="97.3508" width="3.41608" height="3.14035" fill="#910042"/>
<rect x="85.9019" y="97.3508" width="3.41608" height="3.14035" fill="#E5257D"/>
<rect x="89.3181" y="97.3508" width="3.41608" height="3.14035" fill="#E5257D"/>
<rect x="92.7341" y="97.3508" width="3.41608" height="3.14035" fill="#A7004C"/>
<rect x="96.15" y="97.3508" width="3.41608" height="3.14035" fill="#E5257D"/>
<rect x="99.5662" y="97.3508" width="3.41608" height="3.14035" fill="#E5257D"/>
<rect x="102.982" y="97.3508" width="3.41608" height="3.14035" fill="#E5257D"/>
<rect x="106.398" y="97.3508" width="3.41608" height="3.14035" fill="#960246"/>
<rect x="109.814" y="97.3508" width="3.41608" height="3.14035" fill="#E5257D"/>
<rect x="113.231" y="97.3508" width="3.41608" height="3.14035" fill="#E5257D"/>
<rect x="116.647" y="97.3508" width="3.41608" height="3.14035" fill="#E5257D"/>
<rect x="120.063" y="97.3508" width="3.41608" height="3.14035" fill="#910042"/>
<rect x="7.33203" y="100.491" width="3.41608" height="3.14035" fill="black"/>
<rect x="10.7483" y="100.491" width="3.41608" height="3.14035" fill="black"/>
<rect x="14.1642" y="100.491" width="3.41608" height="3.14035" fill="black"/>
<rect x="17.5806" y="100.491" width="3.41608" height="3.14035" fill="black"/>
<rect x="20.9966" y="100.491" width="3.41608" height="3.14035" fill="white"/>
<rect x="24.4126" y="100.491" width="3.41608" height="3.14035" fill="black"/>
<rect x="27.8286" y="100.491" width="3.41608" height="3.14035" fill="white"/>
<rect x="31.2446" y="100.491" width="3.41608" height="3.14035" fill="white"/>
<rect x="79.0696" y="100.491" width="3.41608" height="3.14035" fill="#A7004C"/>
<rect x="82.4858" y="100.491" width="3.41608" height="3.14035" fill="#A7004C"/>
<rect x="85.9019" y="100.491" width="3.41608" height="3.14035" fill="#E5257D"/>
<rect x="89.3181" y="100.491" width="3.41608" height="3.14035" fill="#E5257D"/>
<rect x="92.7341" y="100.491" width="3.41608" height="3.14035" fill="#E5257D"/>
<rect x="96.15" y="100.491" width="3.41608" height="3.14035" fill="#E5257D"/>
<rect x="99.5662" y="100.491" width="3.41608" height="3.14035" fill="#E5257D"/>
<rect x="102.982" y="100.491" width="3.41608" height="3.14035" fill="#E5257D"/>
<rect x="106.398" y="100.491" width="3.41608" height="3.14035" fill="#E5257D"/>
<rect x="109.814" y="100.491" width="3.41608" height="3.14035" fill="#910042"/>
<rect x="113.231" y="100.491" width="3.41608" height="3.14035" fill="#E5257D"/>
<rect x="116.647" y="100.491" width="3.41608" height="3.14035" fill="#E5257D"/>
<rect x="120.063" y="100.491" width="3.41608" height="3.14035" fill="#E5257D"/>
<rect x="10.7483" y="103.632" width="3.41608" height="3.14035" fill="#505050"/>
<rect x="14.1642" y="103.632" width="3.41608" height="3.14035" fill="white"/>
<rect x="17.5806" y="103.632" width="3.41608" height="3.14035" fill="white"/>
<rect x="20.9966" y="103.632" width="3.41608" height="3.14035" fill="white"/>
<rect x="24.4126" y="103.632" width="3.41608" height="3.14035" fill="white"/>
<rect x="27.8286" y="103.632" width="3.41608" height="3.14035" fill="white"/>
<rect x="31.2446" y="103.632" width="3.41608" height="3.14035" fill="white"/>
<rect x="79.0696" y="103.632" width="3.41608" height="3.14035" fill="#A7004C"/>
<rect x="82.4858" y="103.632" width="3.41608" height="3.14035" fill="#A7004C"/>
<rect x="85.9019" y="103.632" width="3.41608" height="3.14035" fill="#A7004C"/>
<rect x="89.3181" y="103.632" width="3.41608" height="3.14035" fill="#A7004C"/>
<rect x="92.7341" y="103.632" width="3.41608" height="3.14035" fill="#A7004C"/>
<rect x="96.15" y="103.632" width="3.41608" height="3.14035" fill="#E5257D"/>
<rect x="99.5662" y="103.632" width="3.41608" height="3.14035" fill="#E5257D"/>
<rect x="102.982" y="103.632" width="3.41608" height="3.14035" fill="#E5257D"/>
<rect x="106.398" y="103.632" width="3.41608" height="3.14035" fill="#E5257D"/>
<rect x="109.814" y="103.632" width="3.41608" height="3.14035" fill="#E5257D"/>
<rect x="113.231" y="103.632" width="3.41608" height="3.14035" fill="#910042"/>
<rect x="116.647" y="103.632" width="3.41608" height="3.14035" fill="#E79473"/>
<rect x="14.1642" y="106.772" width="3.41608" height="3.14035" fill="white"/>
<rect x="17.5806" y="106.772" width="3.41608" height="3.14035" fill="black"/>
<rect x="20.9966" y="106.772" width="3.41608" height="3.14035" fill="white"/>
<rect x="24.4126" y="106.772" width="3.41608" height="3.14035" fill="black"/>
<rect x="27.8286" y="106.772" width="3.41608" height="3.14035" fill="black"/>
<rect x="31.2446" y="106.772" width="3.41608" height="3.14035" fill="white"/>
<rect x="89.3181" y="106.772" width="3.41608" height="3.14035" fill="#EC9E77"/>
<rect x="92.7341" y="106.772" width="3.41608" height="3.14035" fill="#EC9E77"/>
<rect x="96.15" y="106.772" width="3.41608" height="3.14035" fill="#EC9E77"/>
<rect x="99.5662" y="106.772" width="3.41608" height="3.14035" fill="#EC9E77"/>
<rect x="106.398" y="106.772" width="3.41608" height="3.14035" fill="#EC9E77"/>
<rect x="109.814" y="106.772" width="3.41608" height="3.14035" fill="#EC9E77"/>
<rect x="113.231" y="106.772" width="3.41608" height="3.14035" fill="#EC9E77"/>
<rect x="116.647" y="106.772" width="3.41608" height="3.14035" fill="#EC9E77"/>
<rect x="17.5806" y="109.912" width="3.41608" height="3.14035" fill="black"/>
<rect x="20.9966" y="109.912" width="3.41608" height="3.14035" fill="black"/>
<rect x="24.4126" y="109.912" width="3.41608" height="3.14035" fill="black"/>
<rect x="27.8286" y="109.912" width="3.41608" height="3.14035" fill="black"/>
<rect x="31.2446" y="109.912" width="3.41608" height="3.14035" fill="white"/>
<rect x="89.3181" y="109.912" width="3.41608" height="3.14035" fill="#EC9E77"/>
<rect x="92.7341" y="109.912" width="3.41608" height="3.14035" fill="#EC9E77"/>
<rect x="96.15" y="109.912" width="3.41608" height="3.14035" fill="#EC9E77"/>
<rect x="99.5662" y="109.912" width="3.41608" height="3.14035" fill="#EC9E77"/>
<rect x="106.398" y="109.912" width="3.41608" height="3.14035" fill="#EC9E77"/>
<rect x="109.814" y="109.912" width="3.41608" height="3.14035" fill="#EC9E77"/>
<rect x="113.231" y="109.912" width="3.41608" height="3.14035" fill="#EC9E77"/>
<rect x="116.647" y="109.912" width="3.41608" height="3.14035" fill="#E79473"/>
<rect x="20.9966" y="113.053" width="3.41608" height="3.14035" fill="black"/>
<rect x="24.4126" y="113.053" width="3.41608" height="3.14035" fill="white"/>
<rect x="27.8286" y="113.053" width="3.41608" height="3.14035" fill="black"/>
<rect x="31.2446" y="113.053" width="3.41608" height="3.14035" fill="white"/>
<rect x="89.3181" y="113.053" width="3.41608" height="3.14035" fill="#910042"/>
<rect x="92.7341" y="113.053" width="3.41608" height="3.14035" fill="#9B0549"/>
<rect x="96.15" y="113.053" width="3.41608" height="3.14035" fill="#EC9E77"/>
<rect x="109.814" y="113.053" width="3.41608" height="3.14035" fill="#910042"/>
<rect x="113.231" y="113.053" width="3.41608" height="3.14035" fill="#910042"/>
<rect x="116.647" y="113.053" width="3.41608" height="3.14035" fill="#910042"/>
<rect x="24.4126" y="116.193" width="3.41608" height="3.14035" fill="white"/>
<rect x="27.8286" y="116.193" width="3.41608" height="3.14035" fill="white"/>
<rect x="31.2446" y="116.193" width="3.41608" height="3.14035" fill="white"/>
<rect x="85.9019" y="116.193" width="3.41608" height="3.14035" fill="#910042"/>
<rect x="89.3181" y="116.193" width="3.41608" height="3.14035" fill="#910042"/>
<rect x="92.7341" y="116.193" width="3.41608" height="3.14035" fill="#910042"/>
<rect x="96.15" y="116.193" width="3.41608" height="3.14035" fill="#910042"/>
<rect x="109.814" y="116.193" width="3.41608" height="3.14035" fill="#910042"/>
<rect x="113.231" y="116.193" width="3.41608" height="3.14035" fill="#910042"/>
<rect x="116.647" y="116.193" width="3.41608" height="3.14035" fill="#910042"/>
<rect x="27.8286" y="119.333" width="3.41608" height="3.14035" fill="white"/>
<rect x="31.2446" y="119.333" width="3.41608" height="3.14035" fill="black"/>
<rect x="85.9019" y="119.333" width="3.41608" height="3.14035" fill="#910042"/>
<rect x="89.3181" y="119.333" width="3.41608" height="3.14035" fill="#910042"/>
<rect x="92.7341" y="119.333" width="3.41608" height="3.14035" fill="#910042"/>
<rect x="96.15" y="119.333" width="3.41608" height="3.14035" fill="#910042"/>
<rect x="109.814" y="119.333" width="3.41608" height="3.14035" fill="#910042"/>
<rect x="113.231" y="119.333" width="3.41608" height="3.14035" fill="#910042"/>
<rect x="116.647" y="119.333" width="3.41608" height="3.14035" fill="#910042"/>
<rect x="120.063" y="119.333" width="3.41608" height="3.14035" fill="#900042"/>
<rect x="31.2446" y="122.474" width="3.41608" height="3.14035" fill="black"/>
<rect x="85.9019" y="122.474" width="3.41608" height="3.14035" fill="#910042"/>
<rect x="89.3181" y="122.474" width="3.41608" height="3.14035" fill="#910042"/>
<rect x="92.7341" y="122.474" width="3.41608" height="3.14035" fill="#910042"/>
<rect x="109.814" y="122.474" width="3.41608" height="3.14035" fill="#910042"/>
<rect x="113.231" y="122.474" width="3.41608" height="3.14035" fill="#910042"/>
<rect x="116.647" y="122.474" width="3.41608" height="3.14035" fill="#910042"/>
<rect x="120.063" y="122.474" width="3.41608" height="3.14035" fill="#910042"/>
<rect x="82.4858" y="125.614" width="3.41608" height="3.14035" fill="#910042"/>
<rect x="85.9019" y="125.614" width="3.41608" height="3.14035" fill="#9B0449"/>
<rect x="89.3181" y="125.614" width="3.41608" height="3.14035" fill="#E5257D"/>
<rect x="92.7341" y="125.614" width="3.41608" height="3.14035" fill="#E5257D"/>
<rect x="109.814" y="125.614" width="3.41608" height="3.14035" fill="#E5257D"/>
<rect x="113.231" y="125.614" width="3.41608" height="3.14035" fill="#E5257D"/>
<rect x="116.647" y="125.614" width="3.41608" height="3.14035" fill="#E5257D"/>
<rect x="120.063" y="125.614" width="3.41608" height="3.14035" fill="#E5257D"/>
<rect x="82.4858" y="128.754" width="3.41608" height="3.14035" fill="#E5257D"/>
<rect x="85.9019" y="128.754" width="3.41608" height="3.14035" fill="#E5257D"/>
<rect x="89.3181" y="128.754" width="3.41608" height="3.14035" fill="#E5257D"/>
<rect x="92.7341" y="128.754" width="3.41608" height="3.14035" fill="#E5257D"/>
<rect x="109.814" y="128.754" width="3.41608" height="3.14035" fill="#E5257D"/>
<rect x="113.231" y="128.754" width="3.41608" height="3.14035" fill="#E5257D"/>
<rect x="116.647" y="128.754" width="3.41608" height="3.14035" fill="#E5257D"/>
<rect x="120.063" y="128.754" width="3.41608" height="3.14035" fill="#E5257D"/>
<rect x="82.4858" y="131.895" width="3.41608" height="3.14035" fill="#E5257D"/>
<rect x="85.9019" y="131.895" width="3.41608" height="3.14035" fill="#E5257D"/>
<rect x="89.3181" y="131.895" width="3.41608" height="3.14035" fill="#E5257D"/>
<rect x="113.231" y="131.895" width="3.41608" height="3.14035" fill="#E5257D"/>
<rect x="116.647" y="131.895" width="3.41608" height="3.14035" fill="#E5257D"/>
<rect x="120.063" y="131.895" width="3.41608" height="3.14035" fill="#E5257D"/>
<rect x="82.4858" y="135.035" width="3.41608" height="3.14035" fill="#E5257D"/>
<rect x="85.9019" y="135.035" width="3.41608" height="3.14035" fill="#E5257D"/>
<rect x="89.3181" y="135.035" width="3.41608" height="3.14035" fill="#E5257D"/>
<rect x="113.231" y="135.035" width="3.41608" height="3.14035" fill="#E5257D"/>
<rect x="116.647" y="135.035" width="3.41608" height="3.14035" fill="#E5257D"/>
<rect x="120.063" y="135.035" width="3.41608" height="3.14035" fill="#E5257D"/>
<rect x="82.4858" y="138.175" width="3.41608" height="3.14035" fill="#E5257D"/>
<rect x="85.9019" y="138.175" width="3.41608" height="3.14035" fill="#E5257D"/>
<rect x="89.3181" y="138.175" width="3.41608" height="3.14035" fill="#E5257D"/>
<rect x="113.231" y="138.175" width="3.41608" height="3.14035" fill="#E5257D"/>
<rect x="116.647" y="138.175" width="3.41608" height="3.14035" fill="#E5257D"/>
<rect x="120.063" y="138.175" width="3.41608" height="3.14035" fill="#E5257D"/>
<rect x="82.4858" y="141.316" width="3.41608" height="3.14035" fill="#E5257D"/>
<rect x="85.9019" y="141.316" width="3.41608" height="3.14035" fill="#E5257D"/>
<rect x="113.231" y="141.316" width="3.41608" height="3.14035" fill="#E5257D"/>
<rect x="116.647" y="141.316" width="3.41608" height="3.14035" fill="#E5257D"/>
<rect x="120.063" y="141.316" width="3.41608" height="3.14035" fill="#E5257D"/>
<rect x="82.4858" y="144.456" width="3.41608" height="3.14035" fill="#E5257D"/>
<rect x="85.9019" y="144.456" width="3.41608" height="3.14035" fill="#E5257D"/>
<rect x="113.231" y="144.456" width="3.41608" height="3.14035" fill="#E5257D"/>
<rect x="116.647" y="144.456" width="3.41608" height="3.14035" fill="#E5257D"/>
<rect x="120.063" y="144.456" width="3.41608" height="3.14035" fill="#E5257D"/>
<rect x="82.4858" y="147.596" width="3.41608" height="3.14035" fill="#E5257D"/>
<rect x="85.9019" y="147.596" width="3.41608" height="3.14035" fill="#E5257D"/>
<rect x="116.647" y="147.596" width="3.41608" height="3.14035" fill="#E5257D"/>
<rect x="120.063" y="147.596" width="3.41608" height="3.14035" fill="#E5257D"/>
<rect x="82.4858" y="150.737" width="3.41608" height="3.14035" fill="#E5257D"/>
<rect x="116.647" y="150.737" width="3.41608" height="3.14035" fill="#E5257D"/>
<rect x="120.063" y="150.737" width="3.41608" height="3.14035" fill="#E5257D"/>
<rect x="79.0696" y="153.877" width="3.41608" height="3.14035" fill="#E97079"/>
<rect x="82.4858" y="153.877" width="3.41608" height="3.14035" fill="#E5257D"/>
<rect x="116.647" y="153.877" width="3.41608" height="3.14035" fill="#E5257D"/>
<rect x="120.063" y="153.877" width="3.41608" height="3.14035" fill="#E5257D"/>
<rect x="79.0696" y="157.017" width="3.41608" height="3.14035" fill="#E5257D"/>
<rect x="82.4858" y="157.017" width="3.41608" height="3.14035" fill="#E5257D"/>
<rect x="116.647" y="157.017" width="3.41608" height="3.14035" fill="#E5257D"/>
<rect x="120.063" y="157.017" width="3.41608" height="3.14035" fill="#E5257D"/>
<rect x="79.0696" y="160.158" width="3.41608" height="3.14035" fill="#E5257D"/>
<rect x="82.4858" y="160.158" width="3.41608" height="3.14035" fill="#E5257D"/>
<rect x="116.647" y="160.158" width="3.41608" height="3.14035" fill="#E5257D"/>
<rect x="120.063" y="160.158" width="3.41608" height="3.14035" fill="#E5257D"/>
<rect x="75.6538" y="163.298" width="3.41608" height="3.14035" fill="#E6347C"/>
<rect x="79.0696" y="163.298" width="3.41608" height="3.14035" fill="#E5257D"/>
<rect x="82.4858" y="163.298" width="3.41608" height="3.14035" fill="#E5257D"/>
<rect x="116.647" y="163.298" width="3.41608" height="3.14035" fill="#E5257D"/>
<rect x="120.063" y="163.298" width="3.41608" height="3.14035" fill="#E5257D"/>
<rect x="75.6538" y="166.438" width="3.41608" height="3.14035" fill="#E5257D"/>
<rect x="79.0696" y="166.438" width="3.41608" height="3.14035" fill="#E5257D"/>
<rect x="82.4858" y="166.438" width="3.41608" height="3.14035" fill="#E5257D"/>
<rect x="116.647" y="166.438" width="3.41608" height="3.14035" fill="#E5257D"/>
<rect x="120.063" y="166.438" width="3.41608" height="3.14035" fill="#E5257D"/>
<rect x="75.6538" y="169.579" width="3.41608" height="3.14035" fill="#E5257D"/>
<rect x="79.0696" y="169.579" width="3.41608" height="3.14035" fill="#E5257D"/>
<rect x="82.4858" y="169.579" width="3.41608" height="3.14035" fill="#E5257D"/>
<rect x="120.063" y="169.579" width="3.41608" height="3.14035" fill="#E5257D"/>
<rect x="123.479" y="169.579" width="3.41608" height="3.14035" fill="#E5257D"/>
<rect x="79.0696" y="172.719" width="3.41608" height="3.14035" fill="#E5257D"/>
<rect x="82.4858" y="172.719" width="3.41608" height="3.14035" fill="#E5257D"/>
<rect x="120.063" y="172.719" width="3.41608" height="3.14035" fill="#E5257D"/>
<rect x="123.479" y="172.719" width="3.41608" height="3.14035" fill="#E5257D"/>
</svg>
